<mxfile host="app.diagrams.net" modified="2024-03-25T21:13:00.313Z" agent="Mozilla/5.0 (Windows NT 10.0; Win64; x64) AppleWebKit/537.36 (KHTML, like Gecko) Chrome/123.0.0.0 Safari/537.36" etag="6B8ij_LNJ52EHUIRgzQi" version="24.0.9" type="github">
  <diagram name="Page-1" id="q_WYSWE2WwaJmcnQzrtL">
    <mxGraphModel dx="1216" dy="655" grid="1" gridSize="10" guides="1" tooltips="1" connect="1" arrows="1" fold="1" page="1" pageScale="1" pageWidth="850" pageHeight="1100" background="none" math="0" shadow="0">
      <root>
        <mxCell id="0" />
        <mxCell id="1" parent="0" />
        <mxCell id="A7bjgwEE8GU9BA89E1_G-4" value="" style="verticalLabelPosition=bottom;sketch=0;html=1;fillColor=#282828;strokeColor=none;verticalAlign=top;pointerEvents=1;align=center;shape=mxgraph.cisco_safe.people_places_things_icons.icon6;" vertex="1" parent="1">
          <mxGeometry x="390" y="120" width="50" height="43.5" as="geometry" />
        </mxCell>
      </root>
    </mxGraphModel>
  </diagram>
</mxfile>
